{
    "asset" : {
        "generator" : "Khronos glTF Blender I/O v3.4.50",
        "version" : "2.0"
    },
    "scene" : 0,
    "scenes" : [
        {
            "extras" : {
                "principled_baker_settings" : {
                    "resolution" : 3,
                    "file_path" : "//textures\\"
                },
                "principled_baker_suffixlist" : [
                    {
                        "name" : "Color",
                        "suffix" : "_color"
                    },
                    {
                        "name" : "Metallic",
                        "suffix" : "_metallic"
                    },
                    {
                        "name" : "Roughness",
                        "suffix" : "_roughness"
                    },
                    {
                        "name" : "Normal",
                        "suffix" : "_normal"
                    },
                    {
                        "name" : "Displacement",
                        "suffix" : "_disp"
                    },
                    {
                        "name" : "Alpha",
                        "suffix" : "_alpha"
                    },
                    {
                        "name" : "Emission",
                        "suffix" : "_emission"
                    },
                    {
                        "name" : "Ambient Occlusion",
                        "suffix" : "_ao"
                    },
                    {
                        "name" : "Diffuse",
                        "suffix" : "_diffuse"
                    },
                    {
                        "name" : "Glossiness",
                        "suffix" : "_glossiness"
                    },
                    {
                        "name" : "Bump",
                        "suffix" : "_bump"
                    },
                    {
                        "name" : "Vertex Color",
                        "suffix" : "_vertex"
                    },
                    {
                        "name" : "Material ID",
                        "suffix" : "_MatID"
                    },
                    {
                        "name" : "Wireframe",
                        "suffix" : "_wireframe"
                    },
                    {
                        "name" : "Subsurface",
                        "suffix" : "_subsurface"
                    },
                    {
                        "name" : "Subsurface Radius",
                        "suffix" : "_subsurface_radius"
                    },
                    {
                        "name" : "Subsurface Color",
                        "suffix" : "_subsurface_color"
                    },
                    {
                        "name" : "Specular",
                        "suffix" : "_specular"
                    },
                    {
                        "name" : "Specular Tint",
                        "suffix" : "_specular_tint"
                    },
                    {
                        "name" : "Anisotropic",
                        "suffix" : "_anisotropic"
                    },
                    {
                        "name" : "Anisotropic Rotation",
                        "suffix" : "_anisotropic_rotation"
                    },
                    {
                        "name" : "Sheen",
                        "suffix" : "_sheen"
                    },
                    {
                        "name" : "Sheen Tint",
                        "suffix" : "_sheen_tint"
                    },
                    {
                        "name" : "Clearcoat",
                        "suffix" : "_clearcoat"
                    },
                    {
                        "name" : "Clearcoat Roughness",
                        "suffix" : "_clearcoat_roughness"
                    },
                    {
                        "name" : "IOR",
                        "suffix" : "_ior"
                    },
                    {
                        "name" : "Transmission",
                        "suffix" : "_transmission"
                    },
                    {
                        "name" : "Transmission Roughness",
                        "suffix" : "_transmission_roughness"
                    },
                    {
                        "name" : "Clearcoat Normal",
                        "suffix" : "_clearcoat_normal"
                    },
                    {
                        "name" : "Tangent",
                        "suffix" : "_tangent"
                    }
                ]
            },
            "name" : "Scene",
            "nodes" : [
                0
            ]
        }
    ],
    "nodes" : [
        {
            "extras" : {
                "ant_landscape" : {}
            },
            "mesh" : 0,
            "name" : "barrel-convcol"
        }
    ],
    "materials" : [
        {
            "doubleSided" : true,
            "name" : "barrel_baked",
            "normalTexture" : {
                "index" : 0
            },
            "pbrMetallicRoughness" : {
                "baseColorTexture" : {
                    "index" : 1
                },
                "metallicFactor" : 0,
                "metallicRoughnessTexture" : {
                    "index" : 2
                }
            }
        }
    ],
    "meshes" : [
        {
            "name" : "Cylinder",
            "primitives" : [
                {
                    "attributes" : {
                        "POSITION" : 0,
                        "TEXCOORD_0" : 1,
                        "NORMAL" : 2
                    },
                    "indices" : 3,
                    "material" : 0
                }
            ]
        }
    ],
    "textures" : [
        {
            "sampler" : 0,
            "source" : 0
        },
        {
            "sampler" : 0,
            "source" : 1
        },
        {
            "sampler" : 0,
            "source" : 2
        }
    ],
    "images" : [
        {
            "mimeType" : "image/png",
            "name" : "barrel-convcol_normal.png",
            "uri" : "../../props/barrel/textures/barrel-convcol_normal.png"
        },
        {
            "mimeType" : "image/png",
            "name" : "barrel-convcol_color.png",
            "uri" : "../../props/barrel/textures/barrel-convcol_color.png"
        },
        {
            "mimeType" : "image/png",
            "name" : "barrel-convcol_roughness.png",
            "uri" : "../../props/barrel/textures/barrel-convcol_roughness.png"
        }
    ],
    "accessors" : [
        {
            "bufferView" : 0,
            "componentType" : 5126,
            "count" : 1956,
            "max" : [
                0.5074760317802429,
                0.9348293542861938,
                0.5074760317802429
            ],
            "min" : [
                -0.5074760317802429,
                -0.75,
                -0.5074760317802429
            ],
            "type" : "VEC3"
        },
        {
            "bufferView" : 1,
            "componentType" : 5126,
            "count" : 1956,
            "type" : "VEC2"
        },
        {
            "bufferView" : 2,
            "componentType" : 5126,
            "count" : 1956,
            "type" : "VEC3"
        },
        {
            "bufferView" : 3,
            "componentType" : 5123,
            "count" : 7560,
            "type" : "SCALAR"
        }
    ],
    "bufferViews" : [
        {
            "buffer" : 0,
            "byteLength" : 23472,
            "byteOffset" : 0,
            "target" : 34962
        },
        {
            "buffer" : 0,
            "byteLength" : 15648,
            "byteOffset" : 23472,
            "target" : 34962
        },
        {
            "buffer" : 0,
            "byteLength" : 23472,
            "byteOffset" : 39120,
            "target" : 34962
        },
        {
            "buffer" : 0,
            "byteLength" : 15120,
            "byteOffset" : 62592,
            "target" : 34963
        }
    ],
    "samplers" : [
        {
            "magFilter" : 9729,
            "minFilter" : 9987
        }
    ],
    "buffers" : [
        {
            "byteLength" : 77712,
            "uri" : "barrel-73b291ff83112dcbbe7f021ce527d421.bin"
        }
    ]
}
