{
	"asset":{
		"generator":"Khronos glTF Blender I/O v3.5.30",
		"version":"2.0"
	},
	"scene":0,
	"scenes":[
		{
			"extras":{
				"fluentProp":{}
			},
			"name":"Scene",
			"nodes":[
				0,
				1,
				2,
				3,
				4,
				5
			]
		}
	],
	"nodes":[
		{
			"mesh":0,
			"name":"cinder_blocks_broken",
			"rotation":[
				-0.37703773379325867,
				0.0005103147705085576,
				-0.9261977076530457,
				0.00030022463761270046
			],
			"translation":[
				0.06411726772785187,
				-1.8185069561004639,
				-0.042094409465789795
			]
		},
		{
			"mesh":1,
			"name":"cinder_blocks_broken.001",
			"rotation":[
				-0.37703773379325867,
				0.0005103147705085576,
				-0.9261977076530457,
				0.00030022463761270046
			],
			"translation":[
				0.06411726772785187,
				-1.8185069561004639,
				-0.042094409465789795
			]
		},
		{
			"mesh":2,
			"name":"cinder_blocks_broken.002",
			"rotation":[
				-0.37703773379325867,
				0.0005103147705085576,
				-0.9261977076530457,
				0.00030022463761270046
			],
			"translation":[
				0.06411726772785187,
				-1.8185069561004639,
				-0.042094409465789795
			]
		},
		{
			"mesh":3,
			"name":"cinder_blocks_broken.003",
			"rotation":[
				-0.37703773379325867,
				0.0005103147705085576,
				-0.9261977076530457,
				0.00030022463761270046
			],
			"translation":[
				0.06411726772785187,
				-1.8185069561004639,
				-0.042094409465789795
			]
		},
		{
			"mesh":4,
			"name":"cinder_blocks_broken.004",
			"rotation":[
				-0.37703773379325867,
				0.0005103147705085576,
				-0.9261977076530457,
				0.00030022463761270046
			],
			"translation":[
				0.06411726772785187,
				-1.8185069561004639,
				-0.042094409465789795
			]
		},
		{
			"mesh":5,
			"name":"cinder_blocks_broken.005",
			"rotation":[
				-0.37703773379325867,
				0.0005103147705085576,
				-0.9261977076530457,
				0.00030022463761270046
			],
			"translation":[
				0.06411726772785187,
				-1.8185069561004639,
				-0.042094409465789795
			]
		}
	],
	"materials":[
		{
			"doubleSided":true,
			"name":"cinder_blocks",
			"normalTexture":{
				"index":0
			},
			"pbrMetallicRoughness":{
				"baseColorTexture":{
					"index":1
				},
				"metallicFactor":0,
				"roughnessFactor":0.8090909123420715
			}
		}
	],
	"meshes":[
		{
			"name":"cinder_block_whole.001_cell.169",
			"primitives":[
				{
					"attributes":{
						"POSITION":0,
						"TEXCOORD_0":1,
						"NORMAL":2
					},
					"indices":3,
					"material":0
				}
			]
		},
		{
			"name":"cinder_block_whole.001_cell.171",
			"primitives":[
				{
					"attributes":{
						"POSITION":4,
						"TEXCOORD_0":5,
						"NORMAL":6,
						"TANGENT":7
					},
					"indices":8,
					"material":0
				}
			]
		},
		{
			"name":"cinder_block_whole.001_cell.172",
			"primitives":[
				{
					"attributes":{
						"POSITION":9,
						"TEXCOORD_0":10,
						"NORMAL":11,
						"TANGENT":12
					},
					"indices":13,
					"material":0
				}
			]
		},
		{
			"name":"cinder_block_whole.001_cell.173",
			"primitives":[
				{
					"attributes":{
						"POSITION":14,
						"TEXCOORD_0":15,
						"NORMAL":16,
						"TANGENT":17
					},
					"indices":18,
					"material":0
				}
			]
		},
		{
			"name":"cinder_block_whole.001_cell.174",
			"primitives":[
				{
					"attributes":{
						"POSITION":19,
						"TEXCOORD_0":20,
						"NORMAL":21,
						"TANGENT":22
					},
					"indices":23,
					"material":0
				}
			]
		},
		{
			"name":"cinder_block_whole.001_cell.175",
			"primitives":[
				{
					"attributes":{
						"POSITION":24,
						"TEXCOORD_0":25,
						"NORMAL":26,
						"TANGENT":27
					},
					"indices":28,
					"material":0
				}
			]
		}
	],
	"textures":[
		{
			"sampler":0,
			"source":0
		},
		{
			"sampler":0,
			"source":1
		}
	],
	"images":[
		{
			"mimeType":"image/png",
			"name":"cinder_blocks_normal",
			"uri":"../../props/cinder_blocks/textures/cinder_blocks_normal.png"
		},
		{
			"mimeType":"image/png",
			"name":"cinder_block_albedo",
			"uri":"../../props/cinder_blocks/textures/cinder_block_albedo.png"
		}
	],
	"accessors":[
		{
			"bufferView":0,
			"componentType":5126,
			"count":9793,
			"max":[
				2.3305203914642334,
				-1.7250020503997803,
				1.8578554391860962
			],
			"min":[
				-3.830601930618286,
				-2.330061912536621,
				-2.405845880508423
			],
			"type":"VEC3"
		},
		{
			"bufferView":1,
			"componentType":5126,
			"count":9793,
			"type":"VEC2"
		},
		{
			"bufferView":2,
			"componentType":5126,
			"count":9793,
			"type":"VEC3"
		},
		{
			"bufferView":3,
			"componentType":5123,
			"count":20769,
			"type":"SCALAR"
		},
		{
			"bufferView":4,
			"componentType":5126,
			"count":320,
			"max":[
				-1.0262901782989502,
				-1.8160845041275024,
				-0.7187367081642151
			],
			"min":[
				-1.8354341983795166,
				-2.1907784938812256,
				-1.4605913162231445
			],
			"type":"VEC3"
		},
		{
			"bufferView":5,
			"componentType":5126,
			"count":320,
			"type":"VEC2"
		},
		{
			"bufferView":6,
			"componentType":5126,
			"count":320,
			"type":"VEC3"
		},
		{
			"bufferView":7,
			"componentType":5126,
			"count":320,
			"type":"VEC4"
		},
		{
			"bufferView":8,
			"componentType":5123,
			"count":780,
			"type":"SCALAR"
		},
		{
			"bufferView":9,
			"componentType":5126,
			"count":256,
			"max":[
				0.21801656484603882,
				-1.8081138134002686,
				-0.44263726472854614
			],
			"min":[
				-0.36756736040115356,
				-2.452799081802368,
				-0.9310200810432434
			],
			"type":"VEC3"
		},
		{
			"bufferView":10,
			"componentType":5126,
			"count":256,
			"type":"VEC2"
		},
		{
			"bufferView":11,
			"componentType":5126,
			"count":256,
			"type":"VEC3"
		},
		{
			"bufferView":12,
			"componentType":5126,
			"count":256,
			"type":"VEC4"
		},
		{
			"bufferView":13,
			"componentType":5123,
			"count":624,
			"type":"SCALAR"
		},
		{
			"bufferView":14,
			"componentType":5126,
			"count":256,
			"max":[
				0.33548665046691895,
				-1.8074147701263428,
				1.1743710041046143
			],
			"min":[
				-0.32174938917160034,
				-2.3597323894500732,
				0.5581863522529602
			],
			"type":"VEC3"
		},
		{
			"bufferView":15,
			"componentType":5126,
			"count":256,
			"type":"VEC2"
		},
		{
			"bufferView":16,
			"componentType":5126,
			"count":256,
			"type":"VEC3"
		},
		{
			"bufferView":17,
			"componentType":5126,
			"count":256,
			"type":"VEC4"
		},
		{
			"bufferView":18,
			"componentType":5123,
			"count":624,
			"type":"SCALAR"
		},
		{
			"bufferView":19,
			"componentType":5126,
			"count":320,
			"max":[
				0.4992425739765167,
				-1.8180469274520874,
				0.20160217583179474
			],
			"min":[
				-0.3155835270881653,
				-2.1930360794067383,
				-0.33197760581970215
			],
			"type":"VEC3"
		},
		{
			"bufferView":20,
			"componentType":5126,
			"count":320,
			"type":"VEC2"
		},
		{
			"bufferView":21,
			"componentType":5126,
			"count":320,
			"type":"VEC3"
		},
		{
			"bufferView":22,
			"componentType":5126,
			"count":320,
			"type":"VEC4"
		},
		{
			"bufferView":23,
			"componentType":5123,
			"count":780,
			"type":"SCALAR"
		},
		{
			"bufferView":24,
			"componentType":5126,
			"count":320,
			"max":[
				1.7412855625152588,
				-1.8204900026321411,
				1.6839390993118286
			],
			"min":[
				1.335761308670044,
				-2.1953964233398438,
				0.9151263236999512
			],
			"type":"VEC3"
		},
		{
			"bufferView":25,
			"componentType":5126,
			"count":320,
			"type":"VEC2"
		},
		{
			"bufferView":26,
			"componentType":5126,
			"count":320,
			"type":"VEC3"
		},
		{
			"bufferView":27,
			"componentType":5126,
			"count":320,
			"type":"VEC4"
		},
		{
			"bufferView":28,
			"componentType":5123,
			"count":780,
			"type":"SCALAR"
		}
	],
	"bufferViews":[
		{
			"buffer":0,
			"byteLength":117516,
			"byteOffset":0,
			"target":34962
		},
		{
			"buffer":0,
			"byteLength":78344,
			"byteOffset":117516,
			"target":34962
		},
		{
			"buffer":0,
			"byteLength":117516,
			"byteOffset":195860,
			"target":34962
		},
		{
			"buffer":0,
			"byteLength":41538,
			"byteOffset":313376,
			"target":34963
		},
		{
			"buffer":0,
			"byteLength":3840,
			"byteOffset":354916,
			"target":34962
		},
		{
			"buffer":0,
			"byteLength":2560,
			"byteOffset":358756,
			"target":34962
		},
		{
			"buffer":0,
			"byteLength":3840,
			"byteOffset":361316,
			"target":34962
		},
		{
			"buffer":0,
			"byteLength":5120,
			"byteOffset":365156,
			"target":34962
		},
		{
			"buffer":0,
			"byteLength":1560,
			"byteOffset":370276,
			"target":34963
		},
		{
			"buffer":0,
			"byteLength":3072,
			"byteOffset":371836,
			"target":34962
		},
		{
			"buffer":0,
			"byteLength":2048,
			"byteOffset":374908,
			"target":34962
		},
		{
			"buffer":0,
			"byteLength":3072,
			"byteOffset":376956,
			"target":34962
		},
		{
			"buffer":0,
			"byteLength":4096,
			"byteOffset":380028,
			"target":34962
		},
		{
			"buffer":0,
			"byteLength":1248,
			"byteOffset":384124,
			"target":34963
		},
		{
			"buffer":0,
			"byteLength":3072,
			"byteOffset":385372,
			"target":34962
		},
		{
			"buffer":0,
			"byteLength":2048,
			"byteOffset":388444,
			"target":34962
		},
		{
			"buffer":0,
			"byteLength":3072,
			"byteOffset":390492,
			"target":34962
		},
		{
			"buffer":0,
			"byteLength":4096,
			"byteOffset":393564,
			"target":34962
		},
		{
			"buffer":0,
			"byteLength":1248,
			"byteOffset":397660,
			"target":34963
		},
		{
			"buffer":0,
			"byteLength":3840,
			"byteOffset":398908,
			"target":34962
		},
		{
			"buffer":0,
			"byteLength":2560,
			"byteOffset":402748,
			"target":34962
		},
		{
			"buffer":0,
			"byteLength":3840,
			"byteOffset":405308,
			"target":34962
		},
		{
			"buffer":0,
			"byteLength":5120,
			"byteOffset":409148,
			"target":34962
		},
		{
			"buffer":0,
			"byteLength":1560,
			"byteOffset":414268,
			"target":34963
		},
		{
			"buffer":0,
			"byteLength":3840,
			"byteOffset":415828,
			"target":34962
		},
		{
			"buffer":0,
			"byteLength":2560,
			"byteOffset":419668,
			"target":34962
		},
		{
			"buffer":0,
			"byteLength":3840,
			"byteOffset":422228,
			"target":34962
		},
		{
			"buffer":0,
			"byteLength":5120,
			"byteOffset":426068,
			"target":34962
		},
		{
			"buffer":0,
			"byteLength":1560,
			"byteOffset":431188,
			"target":34963
		}
	],
	"samplers":[
		{
			"magFilter":9729,
			"minFilter":9987
		}
	],
	"buffers":[
		{
			"byteLength":432748,
			"uri":"cinder_blocks-36614fbeeb7deeb2cfae935fa485e709.bin"
		}
	]
}
