{
	"asset":{
		"generator":"Khronos glTF Blender I/O v3.5.30",
		"version":"2.0"
	},
	"scene":0,
	"scenes":[
		{
			"extras":{
				"principled_baker_settings":{
					"make_new_material":1,
					"resolution":3,
					"file_path":"//dirty_textures\\",
					"new_material_prefix":"cork_board_dirty"
				},
				"principled_baker_suffixlist":[
					{
						"name":"Color",
						"suffix":"_color"
					},
					{
						"name":"Metallic",
						"suffix":"_metallic"
					},
					{
						"name":"Roughness",
						"suffix":"_roughness"
					},
					{
						"name":"Normal",
						"suffix":"_normal"
					},
					{
						"name":"Displacement",
						"suffix":"_disp"
					},
					{
						"name":"Alpha",
						"suffix":"_alpha"
					},
					{
						"name":"Emission",
						"suffix":"_emission"
					},
					{
						"name":"Ambient Occlusion",
						"suffix":"_ao"
					},
					{
						"name":"Diffuse",
						"suffix":"_diffuse"
					},
					{
						"name":"Glossiness",
						"suffix":"_glossiness"
					},
					{
						"name":"Bump",
						"suffix":"_bump"
					},
					{
						"name":"Vertex Color",
						"suffix":"_vertex"
					},
					{
						"name":"Material ID",
						"suffix":"_MatID"
					},
					{
						"name":"Wireframe",
						"suffix":"_wireframe"
					},
					{
						"name":"Subsurface",
						"suffix":"_subsurface"
					},
					{
						"name":"Subsurface Radius",
						"suffix":"_subsurface_radius"
					},
					{
						"name":"Subsurface Color",
						"suffix":"_subsurface_color"
					},
					{
						"name":"Specular",
						"suffix":"_specular"
					},
					{
						"name":"Specular Tint",
						"suffix":"_specular_tint"
					},
					{
						"name":"Anisotropic",
						"suffix":"_anisotropic"
					},
					{
						"name":"Anisotropic Rotation",
						"suffix":"_anisotropic_rotation"
					},
					{
						"name":"Sheen",
						"suffix":"_sheen"
					},
					{
						"name":"Sheen Tint",
						"suffix":"_sheen_tint"
					},
					{
						"name":"Clearcoat",
						"suffix":"_clearcoat"
					},
					{
						"name":"Clearcoat Roughness",
						"suffix":"_clearcoat_roughness"
					},
					{
						"name":"IOR",
						"suffix":"_ior"
					},
					{
						"name":"Transmission",
						"suffix":"_transmission"
					},
					{
						"name":"Transmission Roughness",
						"suffix":"_transmission_roughness"
					},
					{
						"name":"Clearcoat Normal",
						"suffix":"_clearcoat_normal"
					},
					{
						"name":"Tangent",
						"suffix":"_tangent"
					}
				]
			},
			"name":"Scene",
			"nodes":[
				0
			]
		}
	],
	"nodes":[
		{
			"extras":{
				"ant_landscape":{}
			},
			"mesh":0,
			"name":"cork_board"
		}
	],
	"materials":[
		{
			"name":"cork_board_dirty",
			"pbrMetallicRoughness":{}
		},
		{
			"doubleSided":true,
			"name":"glass_panel",
			"pbrMetallicRoughness":{
				"baseColorFactor":[
					0.800000011920929,
					0.800000011920929,
					0.800000011920929,
					1
				],
				"metallicFactor":0,
				"roughnessFactor":0.5
			}
		}
	],
	"meshes":[
		{
			"name":"Cube.001",
			"primitives":[
				{
					"attributes":{
						"POSITION":0,
						"TEXCOORD_0":1,
						"NORMAL":2
					},
					"indices":3,
					"material":0
				},
				{
					"attributes":{
						"POSITION":4,
						"TEXCOORD_0":5,
						"NORMAL":6
					},
					"indices":7,
					"material":1
				}
			]
		}
	],
	"accessors":[
		{
			"bufferView":0,
			"componentType":5126,
			"count":3514,
			"max":[
				1,
				0.6118674874305725,
				0.08499544113874435
			],
			"min":[
				-1,
				-0.6118674874305725,
				-0.07108384370803833
			],
			"type":"VEC3"
		},
		{
			"bufferView":1,
			"componentType":5126,
			"count":3514,
			"type":"VEC2"
		},
		{
			"bufferView":2,
			"componentType":5126,
			"count":3514,
			"type":"VEC3"
		},
		{
			"bufferView":3,
			"componentType":5123,
			"count":7968,
			"type":"SCALAR"
		},
		{
			"bufferView":4,
			"componentType":5126,
			"count":8,
			"max":[
				0.9316862225532532,
				0.5435537099838257,
				0.05272252857685089
			],
			"min":[
				-0.9316862225532532,
				-0.5435537099838257,
				0.05272252857685089
			],
			"type":"VEC3"
		},
		{
			"bufferView":5,
			"componentType":5126,
			"count":8,
			"type":"VEC2"
		},
		{
			"bufferView":6,
			"componentType":5126,
			"count":8,
			"type":"VEC3"
		},
		{
			"bufferView":7,
			"componentType":5123,
			"count":12,
			"type":"SCALAR"
		}
	],
	"bufferViews":[
		{
			"buffer":0,
			"byteLength":42168,
			"byteOffset":0,
			"target":34962
		},
		{
			"buffer":0,
			"byteLength":28112,
			"byteOffset":42168,
			"target":34962
		},
		{
			"buffer":0,
			"byteLength":42168,
			"byteOffset":70280,
			"target":34962
		},
		{
			"buffer":0,
			"byteLength":15936,
			"byteOffset":112448,
			"target":34963
		},
		{
			"buffer":0,
			"byteLength":96,
			"byteOffset":128384,
			"target":34962
		},
		{
			"buffer":0,
			"byteLength":64,
			"byteOffset":128480,
			"target":34962
		},
		{
			"buffer":0,
			"byteLength":96,
			"byteOffset":128544,
			"target":34962
		},
		{
			"buffer":0,
			"byteLength":24,
			"byteOffset":128640,
			"target":34963
		}
	],
	"buffers":[
		{
			"byteLength":128664,
			"uri":"corkboard-e9ce2297f6d6d043c693e7223d13d1e4.bin"
		}
	]
}
