{
	"asset":{
		"generator":"Khronos glTF Blender I/O v3.5.30",
		"version":"2.0"
	},
	"scene":0,
	"scenes":[
		{
			"name":"Scene",
			"nodes":[
				0
			]
		}
	],
	"nodes":[
		{
			"mesh":0,
			"name":"dirt_pile-col"
		}
	],
	"materials":[
		{
			"name":"dirt",
			"normalTexture":{
				"index":0
			},
			"pbrMetallicRoughness":{
				"baseColorTexture":{
					"index":1
				},
				"metallicFactor":0,
				"metallicRoughnessTexture":{
					"index":2
				}
			}
		}
	],
	"meshes":[
		{
			"name":"Plane",
			"primitives":[
				{
					"attributes":{
						"POSITION":0,
						"TEXCOORD_0":1,
						"NORMAL":2,
						"TANGENT":3
					},
					"indices":4,
					"material":0
				}
			]
		}
	],
	"textures":[
		{
			"sampler":0,
			"source":0
		},
		{
			"sampler":0,
			"source":1
		},
		{
			"sampler":0,
			"source":2
		}
	],
	"images":[
		{
			"mimeType":"image/png",
			"name":"Ground023_2K_NormalGL.png",
			"uri":"../../props/dirt_chunks/textures/dirt_2/Ground023_2K_NormalGL.png"
		},
		{
			"mimeType":"image/png",
			"name":"Ground023_2K_Color.png",
			"uri":"../../props/dirt_chunks/textures/dirt_2/Ground023_2K_Color.png"
		},
		{
			"mimeType":"image/png",
			"name":"Ground023_2K_Roughness.png",
			"uri":"../../props/dirt_chunks/textures/dirt_2/Ground023_2K_Roughness.png"
		}
	],
	"accessors":[
		{
			"bufferView":0,
			"componentType":5126,
			"count":81,
			"max":[
				0.9900301694869995,
				0.09330931305885315,
				1.204720377922058
			],
			"min":[
				-0.9976204037666321,
				-0.2067725658416748,
				-0.9923021793365479
			],
			"type":"VEC3"
		},
		{
			"bufferView":1,
			"componentType":5126,
			"count":81,
			"type":"VEC2"
		},
		{
			"bufferView":2,
			"componentType":5126,
			"count":81,
			"type":"VEC3"
		},
		{
			"bufferView":3,
			"componentType":5126,
			"count":81,
			"type":"VEC4"
		},
		{
			"bufferView":4,
			"componentType":5123,
			"count":384,
			"type":"SCALAR"
		}
	],
	"bufferViews":[
		{
			"buffer":0,
			"byteLength":972,
			"byteOffset":0,
			"target":34962
		},
		{
			"buffer":0,
			"byteLength":648,
			"byteOffset":972,
			"target":34962
		},
		{
			"buffer":0,
			"byteLength":972,
			"byteOffset":1620,
			"target":34962
		},
		{
			"buffer":0,
			"byteLength":1296,
			"byteOffset":2592,
			"target":34962
		},
		{
			"buffer":0,
			"byteLength":768,
			"byteOffset":3888,
			"target":34963
		}
	],
	"samplers":[
		{
			"magFilter":9729,
			"minFilter":9987
		}
	],
	"buffers":[
		{
			"byteLength":4656,
			"uri":"dirt_chunk-7a3134bdab72468ff75aa9eb5a2868ce.bin"
		}
	]
}
