{
	"asset":{
		"generator":"Khronos glTF Blender I/O v3.5.30",
		"version":"2.0"
	},
	"scene":0,
	"scenes":[
		{
			"name":"Scene",
			"nodes":[
				0,
				1,
				2,
				3
			]
		}
	],
	"nodes":[
		{
			"extras":{
				"ant_landscape":{}
			},
			"mesh":0,
			"name":"Plane",
			"rotation":[
				0.5,
				-0.5,
				0.5,
				0.5
			],
			"translation":[
				16.646373748779297,
				22.516578674316406,
				-8.454421997070312
			]
		},
		{
			"extras":{
				"ant_landscape":{}
			},
			"mesh":1,
			"name":"Plane.002",
			"rotation":[
				-0.5000002384185791,
				-0.5000000596046448,
				-0.4999997615814209,
				0.4999999403953552
			],
			"translation":[
				-37.718631744384766,
				21.265663146972656,
				-5.962045669555664
			]
		},
		{
			"extras":{
				"ant_landscape":{}
			},
			"mesh":2,
			"name":"Plane.001",
			"rotation":[
				0.7071068286895752,
				0,
				0,
				0.7071068286895752
			],
			"scale":[
				1.5510261058807373,
				1.5510261058807373,
				1.5510261058807373
			],
			"translation":[
				-4.609838008880615,
				41.43464660644531,
				-157.85289001464844
			]
		},
		{
			"extras":{
				"ant_landscape":{}
			},
			"mesh":3,
			"name":"Plane.003",
			"rotation":[
				0,
				-0.7071068286895752,
				0.7071068286895752,
				1.1520233300643667e-07
			],
			"scale":[
				1.3600136041641235,
				1.3600136041641235,
				1.3600136041641235
			],
			"translation":[
				-7.257192134857178,
				42.681480407714844,
				116.3528060913086
			]
		}
	],
	"materials":[
		{
			"name":"cliff",
			"normalTexture":{
				"index":0
			},
			"pbrMetallicRoughness":{
				"baseColorTexture":{
					"index":1
				},
				"metallicFactor":0,
				"metallicRoughnessTexture":{
					"index":2
				}
			}
		}
	],
	"meshes":[
		{
			"name":"Plane.007",
			"primitives":[
				{
					"attributes":{
						"POSITION":0,
						"TEXCOORD_0":1,
						"NORMAL":2,
						"TANGENT":3
					},
					"indices":4,
					"material":0
				}
			]
		},
		{
			"name":"Plane.009",
			"primitives":[
				{
					"attributes":{
						"POSITION":5,
						"TEXCOORD_0":6,
						"NORMAL":7,
						"TANGENT":8
					},
					"indices":4,
					"material":0
				}
			]
		},
		{
			"name":"Plane",
			"primitives":[
				{
					"attributes":{
						"POSITION":9,
						"TEXCOORD_0":10,
						"NORMAL":11,
						"TANGENT":12
					},
					"indices":13,
					"material":0
				}
			]
		},
		{
			"name":"Plane.001",
			"primitives":[
				{
					"attributes":{
						"POSITION":14,
						"TEXCOORD_0":15,
						"NORMAL":16,
						"TANGENT":17
					},
					"indices":13,
					"material":0
				}
			]
		}
	],
	"textures":[
		{
			"sampler":0,
			"source":0
		},
		{
			"sampler":0,
			"source":1
		},
		{
			"sampler":0,
			"source":2
		}
	],
	"images":[
		{
			"mimeType":"image/png",
			"name":"aerial_rocks_02_nor_gl_2k.png",
			"uri":"../../subway/textures/cliff/aerial_rocks_02_nor_gl_2k.png"
		},
		{
			"mimeType":"image/png",
			"name":"aerial_rocks_02_diff_2k.png",
			"uri":"../../subway/textures/cliff/aerial_rocks_02_diff_2k.png"
		},
		{
			"mimeType":"image/png",
			"name":"aerial_rocks_02_rough_2k.png",
			"uri":"../../subway/textures/cliff/aerial_rocks_02_rough_2k.png"
		}
	],
	"accessors":[
		{
			"bufferView":0,
			"componentType":5126,
			"count":448,
			"max":[
				79.71951293945312,
				13.82270622253418,
				11.981842041015625
			],
			"min":[
				-79.71952819824219,
				-1.9441312551498413,
				-41.273963928222656
			],
			"type":"VEC3"
		},
		{
			"bufferView":1,
			"componentType":5126,
			"count":448,
			"type":"VEC2"
		},
		{
			"bufferView":2,
			"componentType":5126,
			"count":448,
			"type":"VEC3"
		},
		{
			"bufferView":3,
			"componentType":5126,
			"count":448,
			"type":"VEC4"
		},
		{
			"bufferView":4,
			"componentType":5123,
			"count":2418,
			"type":"SCALAR"
		},
		{
			"bufferView":5,
			"componentType":5126,
			"count":448,
			"max":[
				79.71952056884766,
				16.375656127929688,
				41.38966751098633
			],
			"min":[
				-79.71954345703125,
				-1.9441317319869995,
				-25.495037078857422
			],
			"type":"VEC3"
		},
		{
			"bufferView":6,
			"componentType":5126,
			"count":448,
			"type":"VEC2"
		},
		{
			"bufferView":7,
			"componentType":5126,
			"count":448,
			"type":"VEC3"
		},
		{
			"bufferView":8,
			"componentType":5126,
			"count":448,
			"type":"VEC4"
		},
		{
			"bufferView":9,
			"componentType":5126,
			"count":49,
			"max":[
				45.854454040527344,
				19.09634780883789,
				45.854454040527344
			],
			"min":[
				-45.854454040527344,
				2.9847097396850586,
				-45.854454040527344
			],
			"type":"VEC3"
		},
		{
			"bufferView":10,
			"componentType":5126,
			"count":49,
			"type":"VEC2"
		},
		{
			"bufferView":11,
			"componentType":5126,
			"count":49,
			"type":"VEC3"
		},
		{
			"bufferView":12,
			"componentType":5126,
			"count":49,
			"type":"VEC4"
		},
		{
			"bufferView":13,
			"componentType":5123,
			"count":216,
			"type":"SCALAR"
		},
		{
			"bufferView":14,
			"componentType":5126,
			"count":49,
			"max":[
				45.854454040527344,
				19.09634780883789,
				45.854454040527344
			],
			"min":[
				-45.854454040527344,
				2.9847097396850586,
				-45.854454040527344
			],
			"type":"VEC3"
		},
		{
			"bufferView":15,
			"componentType":5126,
			"count":49,
			"type":"VEC2"
		},
		{
			"bufferView":16,
			"componentType":5126,
			"count":49,
			"type":"VEC3"
		},
		{
			"bufferView":17,
			"componentType":5126,
			"count":49,
			"type":"VEC4"
		}
	],
	"bufferViews":[
		{
			"buffer":0,
			"byteLength":5376,
			"byteOffset":0,
			"target":34962
		},
		{
			"buffer":0,
			"byteLength":3584,
			"byteOffset":5376,
			"target":34962
		},
		{
			"buffer":0,
			"byteLength":5376,
			"byteOffset":8960,
			"target":34962
		},
		{
			"buffer":0,
			"byteLength":7168,
			"byteOffset":14336,
			"target":34962
		},
		{
			"buffer":0,
			"byteLength":4836,
			"byteOffset":21504,
			"target":34963
		},
		{
			"buffer":0,
			"byteLength":5376,
			"byteOffset":26340,
			"target":34962
		},
		{
			"buffer":0,
			"byteLength":3584,
			"byteOffset":31716,
			"target":34962
		},
		{
			"buffer":0,
			"byteLength":5376,
			"byteOffset":35300,
			"target":34962
		},
		{
			"buffer":0,
			"byteLength":7168,
			"byteOffset":40676,
			"target":34962
		},
		{
			"buffer":0,
			"byteLength":588,
			"byteOffset":47844,
			"target":34962
		},
		{
			"buffer":0,
			"byteLength":392,
			"byteOffset":48432,
			"target":34962
		},
		{
			"buffer":0,
			"byteLength":588,
			"byteOffset":48824,
			"target":34962
		},
		{
			"buffer":0,
			"byteLength":784,
			"byteOffset":49412,
			"target":34962
		},
		{
			"buffer":0,
			"byteLength":432,
			"byteOffset":50196,
			"target":34963
		},
		{
			"buffer":0,
			"byteLength":588,
			"byteOffset":50628,
			"target":34962
		},
		{
			"buffer":0,
			"byteLength":392,
			"byteOffset":51216,
			"target":34962
		},
		{
			"buffer":0,
			"byteLength":588,
			"byteOffset":51608,
			"target":34962
		},
		{
			"buffer":0,
			"byteLength":784,
			"byteOffset":52196,
			"target":34962
		}
	],
	"samplers":[
		{
			"magFilter":9729,
			"minFilter":9987
		}
	],
	"buffers":[
		{
			"byteLength":52980,
			"uri":"outside_walls-7e82b051a85d4f020e62544f5e59a306.bin"
		}
	]
}
