{
    "asset" : {
        "generator" : "Khronos glTF Blender I/O v3.4.50",
        "version" : "2.0"
    },
    "scene" : 0,
    "scenes" : [
        {
            "extras" : {
                "fluentProp" : {}
            },
            "name" : "Scene",
            "nodes" : [
                0
            ]
        }
    ],
    "nodes" : [
        {
            "mesh" : 0,
            "name" : "Cube_cell.016",
            "rotation" : [
                0.5034868717193604,
                -0.3094170391559601,
                0.49652236700057983,
                0.6357889771461487
            ],
            "translation" : [
                1.5739091634750366,
                0.06036245822906494,
                -0.4619894325733185
            ]
        }
    ],
    "meshes" : [
        {
            "name" : "Cube_cell.026",
            "primitives" : [
                {
                    "attributes" : {
                        "POSITION" : 0,
                        "TEXCOORD_0" : 1,
                        "NORMAL" : 2
                    },
                    "indices" : 3
                }
            ]
        }
    ],
    "accessors" : [
        {
            "bufferView" : 0,
            "componentType" : 5126,
            "count" : 1196,
            "max" : [
                1.8254280090332031,
                2.7021474838256836,
                0.6790493130683899
            ],
            "min" : [
                -0.9219018220901489,
                -1.5610904693603516,
                -0.39131373167037964
            ],
            "type" : "VEC3"
        },
        {
            "bufferView" : 1,
            "componentType" : 5126,
            "count" : 1196,
            "type" : "VEC2"
        },
        {
            "bufferView" : 2,
            "componentType" : 5126,
            "count" : 1196,
            "type" : "VEC3"
        },
        {
            "bufferView" : 3,
            "componentType" : 5123,
            "count" : 1932,
            "type" : "SCALAR"
        }
    ],
    "bufferViews" : [
        {
            "buffer" : 0,
            "byteLength" : 14352,
            "byteOffset" : 0,
            "target" : 34962
        },
        {
            "buffer" : 0,
            "byteLength" : 9568,
            "byteOffset" : 14352,
            "target" : 34962
        },
        {
            "buffer" : 0,
            "byteLength" : 14352,
            "byteOffset" : 23920,
            "target" : 34962
        },
        {
            "buffer" : 0,
            "byteLength" : 3864,
            "byteOffset" : 38272,
            "target" : 34963
        }
    ],
    "buffers" : [
        {
            "byteLength" : 42136,
            "uri" : "rocks-98ef93dd145059a2bcdc7f8a6211eb83.bin"
        }
    ]
}
