{
	"asset":{
		"generator":"Khronos glTF Blender I/O v3.5.30",
		"version":"2.0"
	},
	"scene":0,
	"scenes":[
		{
			"extras":{
				"fluentProp":{
					"model_resolution":16,
					"width":0.009999999776482582,
					"min_auto_bevel_segments":4,
					"min_auto_cylinder_segments":16
				}
			},
			"name":"Scene",
			"nodes":[
				0,
				1,
				2,
				3,
				4,
				5,
				6,
				7
			]
		}
	],
	"nodes":[
		{
			"extras":{
				"ant_landscape":{}
			},
			"mesh":0,
			"name":"pop_can_full",
			"rotation":[
				0.1094612255692482,
				-0.5227125287055969,
				0.6985830664634705,
				0.47620534896850586
			],
			"translation":[
				-0.0713675320148468,
				0.03470468521118164,
				0.30948901176452637
			]
		},
		{
			"extras":{
				"ant_landscape":{}
			},
			"mesh":1,
			"name":"bottle_full",
			"rotation":[
				-0.6539889574050903,
				-0.25186607241630554,
				-0.24599893391132355,
				0.6695868372917175
			],
			"translation":[
				-0.4455455541610718,
				0.06792764365673065,
				-0.19492895901203156
			]
		},
		{
			"extras":{
				"ant_landscape":{}
			},
			"mesh":2,
			"name":"chip_bag",
			"rotation":[
				0,
				0.6962123513221741,
				0,
				0.7178359031677246
			],
			"translation":[
				0.6427175998687744,
				0.005491316318511963,
				-0.5716505646705627
			]
		},
		{
			"extras":{
				"ant_landscape":{}
			},
			"mesh":3,
			"name":"pop_can_dented",
			"rotation":[
				0.6016226410865784,
				0.3598042130470276,
				-0.3476303815841675,
				0.6226911544799805
			],
			"translation":[
				0.4412050247192383,
				0.034938812255859375,
				-0.42541438341140747
			]
		},
		{
			"extras":{
				"ant_landscape":{}
			},
			"mesh":4,
			"name":"pop_can_dented_2",
			"rotation":[
				-0.6072099208831787,
				0.6236194372177124,
				-0.35618841648101807,
				0.3398894667625427
			],
			"translation":[
				-0.040051355957984924,
				0.0340273380279541,
				-0.6580080986022949
			]
		},
		{
			"extras":{
				"ant_landscape":{}
			},
			"mesh":5,
			"name":"chip_bag.001",
			"rotation":[
				0,
				0.78208988904953,
				0,
				0.6231656670570374
			],
			"translation":[
				-0.4917207956314087,
				0.011872589588165283,
				-0.5849447846412659
			]
		},
		{
			"extras":{
				"ant_landscape":{}
			},
			"mesh":6,
			"name":"bottle_full.001",
			"rotation":[
				-0.49577873945236206,
				0.5041052103042603,
				0.4923621714115143,
				0.5076031684875488
			],
			"translation":[
				0.4983426332473755,
				0.06792764365673065,
				0.3368390202522278
			]
		},
		{
			"extras":{
				"ant_landscape":{}
			},
			"mesh":7,
			"name":"pop_can_dented.001",
			"rotation":[
				0.3281300365924835,
				0.6767585873603821,
				0.6124764680862427,
				0.24331289529800415
			],
			"translation":[
				0.09555584192276001,
				0.034938812255859375,
				-0.06647101044654846
			]
		}
	],
	"materials":[
		{
			"doubleSided":true,
			"name":"trash",
			"pbrMetallicRoughness":{
				"baseColorTexture":{
					"index":0
				},
				"metallicFactor":0,
				"roughnessFactor":0.30454546213150024
			}
		}
	],
	"meshes":[
		{
			"name":"Cylinder",
			"primitives":[
				{
					"attributes":{
						"POSITION":0,
						"TEXCOORD_0":1,
						"NORMAL":2
					},
					"indices":3,
					"material":0
				}
			]
		},
		{
			"name":"Cylinder.002",
			"primitives":[
				{
					"attributes":{
						"POSITION":4,
						"TEXCOORD_0":5,
						"NORMAL":6
					},
					"indices":7,
					"material":0
				}
			]
		},
		{
			"name":"Plane.001",
			"primitives":[
				{
					"attributes":{
						"POSITION":8,
						"TEXCOORD_0":9,
						"NORMAL":10,
						"TANGENT":11
					},
					"indices":12,
					"material":0
				}
			]
		},
		{
			"name":"Cylinder.003",
			"primitives":[
				{
					"attributes":{
						"POSITION":13,
						"TEXCOORD_0":14,
						"NORMAL":15
					},
					"indices":16,
					"material":0
				}
			]
		},
		{
			"name":"Cylinder.004",
			"primitives":[
				{
					"attributes":{
						"POSITION":17,
						"TEXCOORD_0":18,
						"NORMAL":19
					},
					"indices":20,
					"material":0
				}
			]
		},
		{
			"name":"Plane.002",
			"primitives":[
				{
					"attributes":{
						"POSITION":21,
						"TEXCOORD_0":22,
						"NORMAL":23,
						"TANGENT":24
					},
					"indices":12,
					"material":0
				}
			]
		},
		{
			"name":"Cylinder.005",
			"primitives":[
				{
					"attributes":{
						"POSITION":25,
						"TEXCOORD_0":26,
						"NORMAL":27
					},
					"indices":7,
					"material":0
				}
			]
		},
		{
			"name":"Cylinder.006",
			"primitives":[
				{
					"attributes":{
						"POSITION":28,
						"TEXCOORD_0":29,
						"NORMAL":30
					},
					"indices":16,
					"material":0
				}
			]
		}
	],
	"textures":[
		{
			"sampler":0,
			"source":0
		}
	],
	"images":[
		{
			"mimeType":"image/png",
			"name":"trash_texture.png",
			"uri":"../../props/trash/texture/trash_texture.png"
		}
	],
	"accessors":[
		{
			"bufferView":0,
			"componentType":5126,
			"count":270,
			"max":[
				0.03382471576333046,
				0.06469175219535828,
				0.03382471576333046
			],
			"min":[
				-0.03382471576333046,
				-0.06399859488010406,
				-0.03382471576333046
			],
			"type":"VEC3"
		},
		{
			"bufferView":1,
			"componentType":5126,
			"count":270,
			"type":"VEC2"
		},
		{
			"bufferView":2,
			"componentType":5126,
			"count":270,
			"type":"VEC3"
		},
		{
			"bufferView":3,
			"componentType":5123,
			"count":756,
			"type":"SCALAR"
		},
		{
			"bufferView":4,
			"componentType":5126,
			"count":525,
			"max":[
				0.06811346113681793,
				0.16667790710926056,
				0.06811340898275375
			],
			"min":[
				-0.06811334192752838,
				-0.23229281604290009,
				-0.06811340153217316
			],
			"type":"VEC3"
		},
		{
			"bufferView":5,
			"componentType":5126,
			"count":525,
			"type":"VEC2"
		},
		{
			"bufferView":6,
			"componentType":5126,
			"count":525,
			"type":"VEC3"
		},
		{
			"bufferView":7,
			"componentType":5123,
			"count":1908,
			"type":"SCALAR"
		},
		{
			"bufferView":8,
			"componentType":5126,
			"count":18,
			"max":[
				0.06996149569749832,
				0.004656518343836069,
				0.07842445373535156
			],
			"min":[
				-0.06996143609285355,
				-0.01187848299741745,
				-0.07842445373535156
			],
			"type":"VEC3"
		},
		{
			"bufferView":9,
			"componentType":5126,
			"count":18,
			"type":"VEC2"
		},
		{
			"bufferView":10,
			"componentType":5126,
			"count":18,
			"type":"VEC3"
		},
		{
			"bufferView":11,
			"componentType":5126,
			"count":18,
			"type":"VEC4"
		},
		{
			"bufferView":12,
			"componentType":5123,
			"count":48,
			"type":"SCALAR"
		},
		{
			"bufferView":13,
			"componentType":5126,
			"count":287,
			"max":[
				0.03382471576333046,
				0.06469175219535828,
				0.03382471576333046
			],
			"min":[
				-0.03382471576333046,
				-0.06399859488010406,
				-0.03382471576333046
			],
			"type":"VEC3"
		},
		{
			"bufferView":14,
			"componentType":5126,
			"count":287,
			"type":"VEC2"
		},
		{
			"bufferView":15,
			"componentType":5126,
			"count":287,
			"type":"VEC3"
		},
		{
			"bufferView":16,
			"componentType":5123,
			"count":852,
			"type":"SCALAR"
		},
		{
			"bufferView":17,
			"componentType":5126,
			"count":287,
			"max":[
				0.03382471576333046,
				0.06469175219535828,
				0.03382471576333046
			],
			"min":[
				-0.03382471576333046,
				-0.06399859488010406,
				-0.03382471576333046
			],
			"type":"VEC3"
		},
		{
			"bufferView":18,
			"componentType":5126,
			"count":287,
			"type":"VEC2"
		},
		{
			"bufferView":19,
			"componentType":5126,
			"count":287,
			"type":"VEC3"
		},
		{
			"bufferView":20,
			"componentType":5123,
			"count":852,
			"type":"SCALAR"
		},
		{
			"bufferView":21,
			"componentType":5126,
			"count":18,
			"max":[
				0.06996149569749832,
				0.004656518343836069,
				0.07842445373535156
			],
			"min":[
				-0.06996143609285355,
				-0.01187848299741745,
				-0.07842445373535156
			],
			"type":"VEC3"
		},
		{
			"bufferView":22,
			"componentType":5126,
			"count":18,
			"type":"VEC2"
		},
		{
			"bufferView":23,
			"componentType":5126,
			"count":18,
			"type":"VEC3"
		},
		{
			"bufferView":24,
			"componentType":5126,
			"count":18,
			"type":"VEC4"
		},
		{
			"bufferView":25,
			"componentType":5126,
			"count":525,
			"max":[
				0.06811346113681793,
				0.16667790710926056,
				0.06811340898275375
			],
			"min":[
				-0.06811334192752838,
				-0.23229281604290009,
				-0.06811340153217316
			],
			"type":"VEC3"
		},
		{
			"bufferView":26,
			"componentType":5126,
			"count":525,
			"type":"VEC2"
		},
		{
			"bufferView":27,
			"componentType":5126,
			"count":525,
			"type":"VEC3"
		},
		{
			"bufferView":28,
			"componentType":5126,
			"count":287,
			"max":[
				0.03382471576333046,
				0.06469175219535828,
				0.03382471576333046
			],
			"min":[
				-0.03382471576333046,
				-0.06399859488010406,
				-0.03382471576333046
			],
			"type":"VEC3"
		},
		{
			"bufferView":29,
			"componentType":5126,
			"count":287,
			"type":"VEC2"
		},
		{
			"bufferView":30,
			"componentType":5126,
			"count":287,
			"type":"VEC3"
		}
	],
	"bufferViews":[
		{
			"buffer":0,
			"byteLength":3240,
			"byteOffset":0,
			"target":34962
		},
		{
			"buffer":0,
			"byteLength":2160,
			"byteOffset":3240,
			"target":34962
		},
		{
			"buffer":0,
			"byteLength":3240,
			"byteOffset":5400,
			"target":34962
		},
		{
			"buffer":0,
			"byteLength":1512,
			"byteOffset":8640,
			"target":34963
		},
		{
			"buffer":0,
			"byteLength":6300,
			"byteOffset":10152,
			"target":34962
		},
		{
			"buffer":0,
			"byteLength":4200,
			"byteOffset":16452,
			"target":34962
		},
		{
			"buffer":0,
			"byteLength":6300,
			"byteOffset":20652,
			"target":34962
		},
		{
			"buffer":0,
			"byteLength":3816,
			"byteOffset":26952,
			"target":34963
		},
		{
			"buffer":0,
			"byteLength":216,
			"byteOffset":30768,
			"target":34962
		},
		{
			"buffer":0,
			"byteLength":144,
			"byteOffset":30984,
			"target":34962
		},
		{
			"buffer":0,
			"byteLength":216,
			"byteOffset":31128,
			"target":34962
		},
		{
			"buffer":0,
			"byteLength":288,
			"byteOffset":31344,
			"target":34962
		},
		{
			"buffer":0,
			"byteLength":96,
			"byteOffset":31632,
			"target":34963
		},
		{
			"buffer":0,
			"byteLength":3444,
			"byteOffset":31728,
			"target":34962
		},
		{
			"buffer":0,
			"byteLength":2296,
			"byteOffset":35172,
			"target":34962
		},
		{
			"buffer":0,
			"byteLength":3444,
			"byteOffset":37468,
			"target":34962
		},
		{
			"buffer":0,
			"byteLength":1704,
			"byteOffset":40912,
			"target":34963
		},
		{
			"buffer":0,
			"byteLength":3444,
			"byteOffset":42616,
			"target":34962
		},
		{
			"buffer":0,
			"byteLength":2296,
			"byteOffset":46060,
			"target":34962
		},
		{
			"buffer":0,
			"byteLength":3444,
			"byteOffset":48356,
			"target":34962
		},
		{
			"buffer":0,
			"byteLength":1704,
			"byteOffset":51800,
			"target":34963
		},
		{
			"buffer":0,
			"byteLength":216,
			"byteOffset":53504,
			"target":34962
		},
		{
			"buffer":0,
			"byteLength":144,
			"byteOffset":53720,
			"target":34962
		},
		{
			"buffer":0,
			"byteLength":216,
			"byteOffset":53864,
			"target":34962
		},
		{
			"buffer":0,
			"byteLength":288,
			"byteOffset":54080,
			"target":34962
		},
		{
			"buffer":0,
			"byteLength":6300,
			"byteOffset":54368,
			"target":34962
		},
		{
			"buffer":0,
			"byteLength":4200,
			"byteOffset":60668,
			"target":34962
		},
		{
			"buffer":0,
			"byteLength":6300,
			"byteOffset":64868,
			"target":34962
		},
		{
			"buffer":0,
			"byteLength":3444,
			"byteOffset":71168,
			"target":34962
		},
		{
			"buffer":0,
			"byteLength":2296,
			"byteOffset":74612,
			"target":34962
		},
		{
			"buffer":0,
			"byteLength":3444,
			"byteOffset":76908,
			"target":34962
		}
	],
	"samplers":[
		{
			"magFilter":9729,
			"minFilter":9987
		}
	],
	"buffers":[
		{
			"byteLength":80352,
			"uri":"trash-f7347673a6ecd237b883c9be4069183e.bin"
		}
	]
}
