{
	"asset":{
		"generator":"Khronos glTF Blender I/O v3.5.30",
		"version":"2.0"
	},
	"scene":0,
	"scenes":[
		{
			"name":"Scene",
			"nodes":[
				0
			]
		}
	],
	"nodes":[
		{
			"extras":{
				"ant_landscape":{}
			},
			"mesh":0,
			"name":"trash_can_complete-convcol"
		}
	],
	"materials":[
		{
			"name":"trash_can",
			"normalTexture":{
				"index":0
			},
			"pbrMetallicRoughness":{
				"baseColorTexture":{
					"index":1
				},
				"metallicFactor":0,
				"metallicRoughnessTexture":{
					"index":2
				}
			}
		}
	],
	"meshes":[
		{
			"name":"Cube.001",
			"primitives":[
				{
					"attributes":{
						"POSITION":0,
						"TEXCOORD_0":1,
						"NORMAL":2
					},
					"indices":3,
					"material":0
				}
			]
		}
	],
	"textures":[
		{
			"sampler":0,
			"source":0
		},
		{
			"sampler":0,
			"source":1
		},
		{
			"sampler":0,
			"source":2
		}
	],
	"images":[
		{
			"mimeType":"image/png",
			"name":"trashcan_DefaultMaterial_Normal.png",
			"uri":"../../props/trash_can/textures/trashcan_DefaultMaterial_Normal.png"
		},
		{
			"mimeType":"image/png",
			"name":"trashcan_DefaultMaterial_BaseColor.png",
			"uri":"../../props/trash_can/textures/trashcan_DefaultMaterial_BaseColor.png"
		},
		{
			"mimeType":"image/png",
			"name":"trashcan_DefaultMaterial_Roughness.png",
			"uri":"../../props/trash_can/textures/trashcan_DefaultMaterial_Roughness.png"
		}
	],
	"accessors":[
		{
			"bufferView":0,
			"componentType":5126,
			"count":312,
			"max":[
				0.40217405557632446,
				1.0902000665664673,
				0.40217405557632446
			],
			"min":[
				-0.40217405557632446,
				-0.7296783924102783,
				-0.40217405557632446
			],
			"type":"VEC3"
		},
		{
			"bufferView":1,
			"componentType":5126,
			"count":312,
			"type":"VEC2"
		},
		{
			"bufferView":2,
			"componentType":5126,
			"count":312,
			"type":"VEC3"
		},
		{
			"bufferView":3,
			"componentType":5123,
			"count":792,
			"type":"SCALAR"
		}
	],
	"bufferViews":[
		{
			"buffer":0,
			"byteLength":3744,
			"byteOffset":0,
			"target":34962
		},
		{
			"buffer":0,
			"byteLength":2496,
			"byteOffset":3744,
			"target":34962
		},
		{
			"buffer":0,
			"byteLength":3744,
			"byteOffset":6240,
			"target":34962
		},
		{
			"buffer":0,
			"byteLength":1584,
			"byteOffset":9984,
			"target":34963
		}
	],
	"samplers":[
		{
			"magFilter":9729,
			"minFilter":9987
		}
	],
	"buffers":[
		{
			"byteLength":11568,
			"uri":"trashcan-487553615b1d4031d3d47fc743683076.bin"
		}
	]
}
