{"accessors":[{"bufferView":0,"byteOffset":0,"componentType":5126,"count":2098,"max":[6.444522,2.631001,2.596046],"min":[-5.884836,-0.275014,-0.492593],"normalized":false,"type":"VEC3"},{"bufferView":1,"byteOffset":0,"componentType":5126,"count":2098,"max":[0.999967,0.906647,0.933306,1],"min":[-0.999996,-0.862111,-0.994383,1],"normalized":false,"type":"VEC4"},{"bufferView":2,"byteOffset":0,"componentType":5126,"count":2098,"max":[0.989966,0.999338,0.999975],"min":[-0.902214,-0.9999,-0.999734],"normalized":false,"type":"VEC3"},{"bufferView":3,"byteOffset":0,"componentType":5126,"count":2098,"max":[0.999063,0.997648],"min":[0.533111,0.503416],"normalized":false,"type":"VEC2"},{"bufferView":4,"byteOffset":0,"componentType":5126,"count":2098,"max":[0.996667,0.996667],"min":[0.003333,0.003333],"normalized":false,"type":"VEC2"},{"bufferView":5,"byteOffset":0,"componentType":5125,"count":5886,"max":[2097],"min":[0],"normalized":false,"type":"SCALAR"}],"asset":{"generator":"Godot Engine v4.0.1.stable.official@cacf49999e3fb37281d66cc591ca8bebc5712d4d","version":"2.0"},"bufferViews":[{"buffer":0,"byteLength":25176,"byteOffset":0},{"buffer":0,"byteLength":33568,"byteOffset":25176},{"buffer":0,"byteLength":25176,"byteOffset":58744},{"buffer":0,"byteLength":16784,"byteOffset":83920},{"buffer":0,"byteLength":16784,"byteOffset":100704},{"buffer":0,"byteLength":23544,"byteOffset":117488}],"buffers":[{"byteLength":141032,"uri":"ivy_corner0.bin"}],"images":[{"uri":"textures%2F_albedo.png"},{"uri":"textures%2F_orm.png"},{"uri":"textures%2F_normal.png"}],"materials":[{"alphaCutoff":0.5,"alphaMode":"MASK","doubleSided":true,"extensions":{},"normalTexture":{"index":2,"scale":1},"pbrMetallicRoughness":{"baseColorFactor":[0.99999988079071,0.991100966930389,0.584077894687653,1],"baseColorTexture":{"index":0},"metallicFactor":0,"metallicRoughnessTexture":{"index":1},"roughnessFactor":1}}],"meshes":[{"extras":{"targetNames":[]},"primitives":[{"attributes":{"NORMAL":2,"POSITION":0,"TANGENT":1,"TEXCOORD_0":3,"TEXCOORD_1":4},"indices":5,"material":0,"mode":4}]}],"nodes":[{"extensions":{},"mesh":0,"name":"Ivy_corner","scale":[1.10000002384186,1.10000002384186,1.10000002384186]}],"samplers":[{"magFilter":9729,"minFilter":9987,"wrapS":10497,"wrapT":10497}],"scene":0,"scenes":[{"nodes":[0]}],"textures":[{"sampler":0,"source":0},{"sampler":0,"source":1},{"sampler":0,"source":2}]}