{"accessors":[{"bufferView":0,"byteOffset":0,"componentType":5126,"count":946,"max":[0.687403,1.206079,0.888755],"min":[-0.861584,-6.050176,-0.58438],"normalized":false,"type":"VEC3"},{"bufferView":1,"byteOffset":0,"componentType":5126,"count":946,"max":[0.999949,0.66624,0.999939,1],"min":[-0.998275,-0.970869,-0.999976,1],"normalized":false,"type":"VEC4"},{"bufferView":2,"byteOffset":0,"componentType":5126,"count":946,"max":[0.997425,0.740972,0.999273],"min":[-0.999184,-0.887163,-0.997869],"normalized":false,"type":"VEC3"},{"bufferView":3,"byteOffset":0,"componentType":5126,"count":946,"max":[0.999063,0.997648],"min":[0.533111,0.503416],"normalized":false,"type":"VEC2"},{"bufferView":4,"byteOffset":0,"componentType":5126,"count":946,"max":[0.995283,0.995098],"min":[0.004717,0.004902],"normalized":false,"type":"VEC2"},{"bufferView":5,"byteOffset":0,"componentType":5125,"count":2616,"max":[945],"min":[0],"normalized":false,"type":"SCALAR"}],"asset":{"generator":"Godot Engine v4.0.1.stable.official@cacf49999e3fb37281d66cc591ca8bebc5712d4d","version":"2.0"},"bufferViews":[{"buffer":0,"byteLength":11352,"byteOffset":0},{"buffer":0,"byteLength":15136,"byteOffset":11352},{"buffer":0,"byteLength":11352,"byteOffset":26488},{"buffer":0,"byteLength":7568,"byteOffset":37840},{"buffer":0,"byteLength":7568,"byteOffset":45408},{"buffer":0,"byteLength":10464,"byteOffset":52976}],"buffers":[{"byteLength":63440,"uri":"ivy_tall0.bin"}],"images":[{"uri":"textures%2F_albedo.png"},{"uri":"textures%2F_orm.png"},{"uri":"textures%2F_normal.png"}],"materials":[{"alphaCutoff":0.5,"alphaMode":"MASK","doubleSided":true,"extensions":{},"normalTexture":{"index":2,"scale":1},"pbrMetallicRoughness":{"baseColorFactor":[0.99999988079071,0.991100966930389,0.584077894687653,1],"baseColorTexture":{"index":0},"metallicFactor":0,"metallicRoughnessTexture":{"index":1},"roughnessFactor":1}}],"meshes":[{"extras":{"targetNames":[]},"primitives":[{"attributes":{"NORMAL":2,"POSITION":0,"TANGENT":1,"TEXCOORD_0":3,"TEXCOORD_1":4},"indices":5,"material":0,"mode":4}]}],"nodes":[{"extensions":{},"mesh":0,"name":"Ivy_tall","scale":[1.10000002384186,1.10000002384186,1.10000002384186]}],"samplers":[{"magFilter":9729,"minFilter":9987,"wrapS":10497,"wrapT":10497}],"scene":0,"scenes":[{"nodes":[0]}],"textures":[{"sampler":0,"source":0},{"sampler":0,"source":1},{"sampler":0,"source":2}]}