{"accessors":[{"bufferView":0,"byteOffset":0,"componentType":5126,"count":2045,"max":[4.986431,0.276026,0.767777],"min":[-6.188669,-4.554218,-0.541365],"normalized":false,"type":"VEC3"},{"bufferView":1,"byteOffset":0,"componentType":5126,"count":2045,"max":[0.999992,0.476827,0.996937,1],"min":[-0.999996,-0.662586,-0.994383,1],"normalized":false,"type":"VEC4"},{"bufferView":2,"byteOffset":0,"componentType":5126,"count":2045,"max":[0.989966,0.676731,0.999579],"min":[-0.990823,-0.602313,-0.999734],"normalized":false,"type":"VEC3"},{"bufferView":3,"byteOffset":0,"componentType":5126,"count":2045,"max":[0.999063,0.997648],"min":[0.533111,0.503416],"normalized":false,"type":"VEC2"},{"bufferView":4,"byteOffset":0,"componentType":5126,"count":2045,"max":[0.996667,0.996575],"min":[0.003333,0.003425],"normalized":false,"type":"VEC2"},{"bufferView":5,"byteOffset":0,"componentType":5125,"count":5886,"max":[2044],"min":[0],"normalized":false,"type":"SCALAR"}],"asset":{"generator":"Godot Engine v4.0.1.stable.official@cacf49999e3fb37281d66cc591ca8bebc5712d4d","version":"2.0"},"bufferViews":[{"buffer":0,"byteLength":24540,"byteOffset":0},{"buffer":0,"byteLength":32720,"byteOffset":24540},{"buffer":0,"byteLength":24540,"byteOffset":57260},{"buffer":0,"byteLength":16360,"byteOffset":81800},{"buffer":0,"byteLength":16360,"byteOffset":98160},{"buffer":0,"byteLength":23544,"byteOffset":114520}],"buffers":[{"byteLength":138064,"uri":"ivy_wide0.bin"}],"images":[{"uri":"textures%2F_albedo.png"},{"uri":"textures%2F_orm.png"},{"uri":"textures%2F_normal.png"}],"materials":[{"alphaCutoff":0.5,"alphaMode":"MASK","doubleSided":true,"extensions":{},"normalTexture":{"index":2,"scale":1},"pbrMetallicRoughness":{"baseColorFactor":[0.99999988079071,0.991100966930389,0.584077894687653,1],"baseColorTexture":{"index":0},"metallicFactor":0,"metallicRoughnessTexture":{"index":1},"roughnessFactor":1}}],"meshes":[{"extras":{"targetNames":[]},"primitives":[{"attributes":{"NORMAL":2,"POSITION":0,"TANGENT":1,"TEXCOORD_0":3,"TEXCOORD_1":4},"indices":5,"material":0,"mode":4}]}],"nodes":[{"extensions":{},"mesh":0,"name":"Ivy_wide","scale":[1.10000002384186,1.10000002384186,1.10000002384186]}],"samplers":[{"magFilter":9729,"minFilter":9987,"wrapS":10497,"wrapT":10497}],"scene":0,"scenes":[{"nodes":[0]}],"textures":[{"sampler":0,"source":0},{"sampler":0,"source":1},{"sampler":0,"source":2}]}